<?xml version="1.0" standalone="no"?>
<!DOCTYPE svg PUBLIC "-//W3C//DTD SVG 20010904//EN"
 "http://www.w3.org/TR/2001/REC-SVG-20010904/DTD/svg10.dtd">
<svg version="1.0" xmlns="http://www.w3.org/2000/svg"
 width="753.000000pt" height="753.000000pt" viewBox="0 0 753.000000 753.000000"
 preserveAspectRatio="xMidYMid meet">
<metadata>
Created by potrace 1.14, written by Peter Selinger 2001-2017
</metadata>
<g transform="translate(0.000000,753.000000) scale(0.100000,-0.100000)"
fill="#000000" stroke="none">
<path d="M2953 7497 c-13 -17 -204 -215 -425 -439 -722 -729 -2310 -2329
-2421 -2438 l-107 -106 0 -766 0 -766 31 -31 c17 -17 32 -31 35 -31 2 0 371
-366 821 -814 450 -448 1111 -1104 1468 -1460 l650 -645 900 -1 900 0 716 722
c394 398 1007 1016 1363 1373 l646 650 0 1022 0 1022 -697 695 c-384 381
-1004 998 -1378 1370 l-680 676 -900 0 -900 0 -22 -33z m2575 -801 c427 -425
1039 -1034 1360 -1352 l582 -578 0 -995 0 -996 -378 -382 c-299 -303 -1963
-1980 -2267 -2285 l-67 -68 -853 0 -854 0 -359 358 c-198 196 -871 865 -1496
1486 l-1136 1129 0 736 1 736 490 495 c270 272 937 944 1481 1493 l991 997
864 0 864 0 777 -774z"/>
<path d="M3510 6729 c-338 -334 -1722 -1704 -1896 -1877 -92 -91 -124 -134
-124 -167 0 -9 -9 -33 -20 -55 -23 -44 -25 -60 -9 -60 6 0 160 148 342 329
183 181 427 423 543 538 117 114 500 494 854 843 353 349 645 635 650 635 4 0
76 -65 159 -145 84 -80 153 -146 154 -147 5 -4 62 -13 116 -19 l54 -7 -139
135 c-252 245 -339 328 -344 328 -3 0 -156 -149 -340 -331z"/>
<path d="M3620 6519 c-41 -5 -79 -10 -85 -12 -5 -2 -10 -25 -10 -51 l-1 -48
60 7 c94 11 462 14 546 5 150 -17 187 -22 305 -47 66 -13 128 -26 137 -28 70
-15 274 -86 380 -131 342 -147 606 -327 874 -598 150 -152 273 -307 376 -476
90 -148 124 -216 204 -407 15 -36 23 -44 53 -49 20 -3 44 -8 54 -11 26 -7 22
13 -28 131 -251 600 -688 1081 -1266 1395 -271 146 -658 271 -954 306 -27 3
-66 8 -85 11 -62 10 -482 12 -560 3z"/>
<path d="M2945 6371 c-376 -130 -734 -352 -1030 -640 -461 -448 -740 -1014
-820 -1666 -9 -73 -14 -461 -6 -524 l6 -54 48 -1 c26 0 48 3 50 8 2 6 0 30 -4
55 -8 48 -4 447 4 491 6 29 15 96 23 161 3 24 7 52 10 61 3 10 7 30 10 45 11
61 47 194 80 293 101 305 271 609 477 855 76 90 281 293 372 367 226 184 500
340 781 443 l102 38 -1 48 c-1 27 -6 49 -12 48 -5 0 -46 -13 -90 -28z"/>
<path d="M4706 6194 c2 -27 6 -62 8 -79 3 -23 37 -62 154 -175 365 -353 599
-579 651 -629 31 -29 121 -117 201 -195 137 -132 583 -564 710 -686 31 -30
171 -165 310 -300 139 -135 276 -267 303 -293 l50 -49 -150 -147 c-118 -115
-152 -154 -157 -181 -11 -52 -19 -136 -13 -130 79 71 457 458 457 466 0 7 -4
14 -9 16 -8 3 -173 160 -630 604 -186 180 -423 409 -496 479 -52 51 -487 471
-620 600 -40 39 -177 171 -306 295 -128 124 -263 254 -300 290 -37 36 -89 87
-117 114 l-51 49 5 -49z"/>
<path d="M3340 4455 c-89 -15 -182 -40 -264 -72 -33 -12 -62 -20 -65 -18 -3 3
-4 24 -2 45 3 40 3 40 -31 36 -18 -3 -53 -7 -77 -10 -24 -3 -46 -8 -49 -11 -3
-3 -6 -1127 -3 -1155 1 -3 47 -5 104 -5 56 0 146 -4 200 -8 80 -6 97 -5 97 7
0 7 -15 19 -32 25 -114 42 -176 97 -199 179 -10 36 -14 137 -14 417 l0 369
120 39 c66 21 136 40 155 43 19 3 49 9 65 13 32 8 172 6 218 -3 53 -10 91 -40
117 -91 l25 -50 0 -355 c-1 -354 -1 -355 -25 -414 -29 -70 -75 -111 -152 -137
-32 -10 -54 -24 -56 -34 -3 -15 5 -16 75 -11 43 4 129 9 192 11 62 2 116 7
119 10 8 8 6 905 -2 950 -22 116 -94 192 -212 224 -61 16 -219 19 -304 6z"/>
<path d="M4538 4464 c-2 -1 -29 -5 -61 -9 -77 -8 -213 -48 -306 -89 l-75 -33
-22 24 c-28 30 -101 62 -161 69 l-48 6 33 -23 c18 -13 45 -49 60 -79 l27 -55
5 -503 5 -504 100 -3 c55 -2 142 -7 194 -10 71 -5 96 -3 102 6 5 9 -10 19 -56
35 -80 28 -109 48 -136 90 -43 70 -47 116 -49 491 0 196 -3 360 -5 364 -10 16
235 97 344 114 24 4 78 7 119 7 61 0 84 -5 130 -29 63 -32 89 -62 103 -119 10
-43 6 -805 -5 -869 -4 -22 -9 -51 -11 -64 l-4 -23 85 6 c47 3 88 7 92 10 4 2
7 213 6 468 -1 528 -4 557 -62 614 -42 41 -107 76 -171 94 -36 9 -226 21 -233
14z"/>
<path d="M2325 4440 c-5 -9 12 -23 31 -26 32 -5 105 -46 130 -72 16 -16 38
-52 48 -78 18 -45 20 -79 23 -389 2 -348 -1 -395 -37 -470 -21 -43 -97 -97
-155 -111 -32 -8 -47 -22 -38 -37 3 -5 35 -6 72 -2 37 4 120 8 185 10 64 1
120 5 122 8 5 4 8 824 5 1102 l-1 60 -113 3 c-61 1 -147 4 -189 6 -43 3 -80 1
-83 -4z"/>
<path d="M5036 4398 c43 -31 82 -89 89 -134 4 -22 8 -48 10 -59 2 -11 4 -227
4 -480 l1 -460 93 -1 c50 0 140 -3 200 -7 89 -5 107 -4 107 8 0 8 -18 19 -42
26 -66 17 -114 46 -143 83 -53 70 -57 102 -61 481 -4 394 -9 427 -71 489 -37
37 -133 76 -187 76 l-31 0 31 -22z"/>
<path d="M840 4087 c-102 -100 -200 -200 -218 -220 -17 -21 -32 -34 -32 -31 0
4 -17 -10 -38 -31 l-39 -38 1232 -1235 1232 -1235 64 -2 c35 -1 67 0 71 2 4 2
-545 558 -1220 1234 -675 677 -1228 1232 -1229 1233 -2 1 78 82 176 180 178
177 178 178 184 229 4 29 9 62 13 75 3 12 2 22 -2 22 -5 0 -92 -83 -194 -183z"/>
<path d="M6647 4059 c-10 -6 -30 -9 -44 -7 -27 3 -27 3 -23 -52 12 -153 3
-498 -15 -605 -10 -56 -35 -190 -40 -212 -3 -13 -7 -32 -9 -42 -48 -215 -174
-519 -302 -731 -126 -209 -229 -338 -423 -530 -265 -262 -542 -444 -891 -585
-52 -21 -96 -39 -97 -39 0 -1 -3 -10 -5 -21 -1 -11 -5 -22 -8 -25 -3 -3 -13
-20 -23 -39 l-17 -33 27 7 c54 13 218 78 317 125 397 187 768 485 1027 825
112 147 319 490 319 530 0 6 4 15 9 20 10 12 85 203 112 289 26 79 65 231 73
278 3 21 10 57 15 80 10 45 17 101 31 228 7 62 5 470 -2 533 -3 20 -6 20 -31
6z"/>
<path d="M6055 2763 c-160 -157 -625 -617 -1034 -1022 -790 -782 -1128 -1116
-1161 -1146 -19 -18 -22 -15 -158 121 -77 76 -150 149 -164 162 l-26 23 5 -33
c2 -18 5 -52 5 -76 1 -42 4 -46 160 -197 88 -85 163 -155 167 -155 4 0 28 21
53 48 47 49 567 565 1717 1701 448 444 684 684 687 700 3 15 15 55 25 90 11
35 19 65 17 67 -2 1 -134 -126 -293 -283z"/>
<path d="M1303 2865 c-7 -7 -24 -12 -38 -11 -14 2 -25 -1 -25 -6 0 -5 21 -60
46 -121 186 -455 492 -851 893 -1156 71 -54 229 -161 276 -187 408 -223 731
-327 1160 -372 87 -9 541 -9 550 0 4 4 9 29 11 55 l3 48 -72 -7 c-76 -7 -454
-2 -522 7 -647 84 -1175 336 -1611 770 -295 293 -475 568 -629 960 -5 11 -7
23 -7 28 3 12 -22 7 -35 -8z"/>
</g>
</svg>
