<?xml version="1.0" encoding="UTF-8"?>
<svg width="309px" height="56px" viewBox="0 0 309 56" version="1.1" xmlns="http://www.w3.org/2000/svg" xmlns:xlink="http://www.w3.org/1999/xlink">
    <!-- Generator: Sketch 63.1 (92452) - https://sketch.com -->
    <title>Group 17</title>
    <desc>Created with Sketch.</desc>
    <defs>
        <polygon id="path-1" points="0 55.8150708 0 -0.00391080614 308.2885 -0.00391080614 308.2885 55.8150708"></polygon>
        <polygon id="path-3" points="0 42.2351901 0 -0.00354994303 35.0645802 -0.00354994303 35.0645802 42.2351901"></polygon>
        <polygon id="path-5" points="-1.99942249e-05 10.9938907 -1.99942249e-05 -0.00278957896 13.8646405 -0.00278957896 13.8646405 10.9938907"></polygon>
        <polygon id="path-7" points="0.00519962761 42.4474102 0.00519962761 -0.00361049336 26.9410798 -0.00361049336 26.9410798 42.4474102"></polygon>
        <polygon id="path-9" points="0.0012299096 42.4474102 0.0012299096 -0.00361049336 26.9372701 -0.00361049336 26.9372701 42.4474102"></polygon>
        <polygon id="path-11" points="0.00264004244 55.8009699 0.00264004244 -0.00443024194 133.567 -0.00443024194 133.567 55.8009699"></polygon>
    </defs>
    <g id="null" stroke="none" stroke-width="1" fill="none" fill-rule="evenodd">
        <g id="Homepage" transform="translate(-140.000000, -100.000000)">
            <g id="Group-17" transform="translate(140.000000, 100.094430)">
                <g id="Group-16">
                    <mask id="mask-2" fill="white">
                        <use xlink:href="#path-1"></use>
                    </mask>
                    <g id="Rectangle-8"></g>
                    <g id="Group-3" mask="url(#mask-2)">
                        <g transform="translate(0.000000, 13.411480)" id="Group-2">
                            <g>
                                <g id="Group-1">
                                    <mask id="mask-4" fill="white">
                                        <use xlink:href="#path-3"></use>
                                    </mask>
                                    <g id="Rectangle-3"></g>
                                    <path d="M30.5611561,33.2289752 C30.0037652,33.5479711 29.2988947,33.866317 28.4498142,34.185303 C27.5987839,34.5042989 26.6165228,34.7973051 25.5010911,35.0623718 C24.3849994,35.3287483 23.1636751,35.4606367 21.8351583,35.4606367 C19.9758787,35.4606367 18.2497798,35.1819202 16.6549117,34.6238474 C15.0619934,34.0657745 13.6529122,33.1893557 12.4315879,31.993941 C11.2089637,30.7985363 10.2520408,29.3120653 9.56341912,27.530638 C8.87219761,25.7518208 8.52659186,23.6137181 8.52659186,21.1157001 C8.52659186,18.7242306 8.87219761,16.6400573 9.56341912,14.85929 C10.2520408,13.0798128 11.1966246,11.5920518 12.3919607,10.3966371 C13.5873068,9.20057238 14.981439,8.29817391 16.5756572,7.68682173 C18.1692354,7.07611954 19.8946844,6.77012345 21.7559038,6.77012345 C23.2429395,6.77012345 24.5844454,6.92929141 25.7797915,7.24828734 C26.9757876,7.56728326 28.0236541,7.95318832 28.9286107,8.40406256 C29.8303174,8.85623678 30.5735053,9.32011085 31.1594842,9.79827474 C31.7428632,10.2764386 32.1956615,10.6753435 32.5139891,10.9943394 C33.3637195,10.3570076 34.0003749,9.59947728 34.426545,8.72305848 C34.8514052,7.84598969 35.0651402,7.08846938 35.0651402,6.45112753 C35.0651402,5.65461771 34.8773933,4.96466653 34.5057994,4.37930401 C34.1341955,3.79524148 33.6820472,3.29108793 33.1519444,2.86490337 C32.8336267,2.65310608 32.3814684,2.38673949 31.7961395,2.06839356 C31.2114605,1.74939764 30.4286454,1.43105171 29.4463843,1.11141579 C28.4621734,0.79241987 27.2941153,0.527353258 25.9402703,0.314905974 C24.5844654,0.103108682 23.0038863,-0.00408994771 21.1985329,-0.00408994771 C18.2225217,-0.00408994771 15.4459465,0.474073939 12.8701172,1.43105171 C10.2929879,2.38672949 8.0484754,3.78159166 6.13657952,5.61433822 C4.22338373,7.44773479 2.72205905,9.67873626 1.63455534,12.3086426 C0.543801854,14.939189 3e-05,17.9277208 3e-05,21.274868 C3e-05,24.6220152 0.543811854,27.5981972 1.63455534,30.2008139 C2.72205905,32.8047306 4.19609564,34.9967426 6.05602517,36.7755699 C7.9159547,38.5563471 10.12084,39.9109298 12.6706811,40.8406179 C15.2205323,41.769016 17.9574703,42.2348301 20.8789153,42.2348301 C22.7914612,42.2348301 24.5175601,42.0879919 26.0591619,41.7962957 C27.5988139,41.5039294 28.9682579,41.145314 30.163604,40.7204194 C31.3589502,40.2955249 31.4206658,39.9180697 32.2703962,39.4399058 C33.1201266,38.9610919 33.7587318,37.4941107 34.2368683,37.1751147 C34.2368683,37.1751147 31.7169051,32.5123644 31.7169051,32.5123644 C31.50383,32.6715323 31.1198869,32.9106193 30.5611961,33.2289552" id="Path-1" fill="#FFFFFF" mask="url(#mask-4)"></path>
                                </g>
                            </g>
                        </g>
                    </g>
                    <path d="M95.63473,40.38913 C95.04998,42.16992 94.21385,43.71034 93.12433,45.01166 C92.03544,46.31429 90.70683,47.3226 89.13977,48.04051 C87.57209,48.75711 85.80558,49.11557 83.84027,49.11557 C81.8204,49.11557 80.02791,48.75711 78.4602,48.04051 C76.89315,47.3226 75.56455,46.31429 74.47567,45.01166 C73.3868,43.71034 72.54869,42.16992 71.96527,40.38913 C71.38056,38.60898 71.08819,36.65732 71.08819,34.53154 C71.08819,32.40641 71.38056,30.45475 71.96527,28.67331 C72.54869,26.89446 73.38679,25.3534 74.47567,24.05143 C75.56454,22.74945 76.89315,21.73984 78.4602,21.02324 C80.0279,20.30533 81.8204,19.94671 83.84027,19.94671 C85.80558,19.94671 87.57209,20.30534 89.13977,21.02324 C90.70682,21.73984 92.03544,22.74946 93.12433,24.05143 C94.21385,25.3534 95.04998,26.89446 95.63473,28.67331 C96.21942,30.45475 96.51179,32.40641 96.51179,34.53154 C96.51179,36.65732 96.21942,38.60898 95.63473,40.38913 M99.14239,19.34899 C97.28167,17.46425 95.04998,15.97581 92.448,14.88628 C89.8434,13.7974 86.97502,13.25232 83.84027,13.25232 C80.70424,13.25232 77.82352,13.79741 75.19293,14.88628 C72.56234,15.97581 70.31767,17.46424 68.45892,19.34899 C66.59755,21.23568 65.15071,23.48035 64.11509,26.083 C63.07885,28.68695 62.56104,31.5027 62.56104,34.53154 C62.56104,37.55973 63.07885,40.37678 64.11509,42.97943 C65.1507,45.58338 66.59755,47.8287 68.45892,49.71344 C70.31767,51.60014 72.56234,53.08792 75.19293,54.17679 C77.82351,55.26502 80.70424,55.81011 83.84027,55.81011 C86.97502,55.81011 89.8434,55.26502 92.448,54.17679 C95.04998,53.08792 97.28167,51.60013 99.14239,49.71344 C101.00114,47.8287 102.44931,45.58338 103.48554,42.97943 C104.52114,40.37678 105.03893,37.55973 105.03893,34.53154 C105.03893,31.50269 104.52114,28.68695 103.48554,26.083 C102.4493,23.48035 101.00113,21.23568 99.14239,19.34899" id="Path-2" fill="#FFFFFF" mask="url(#mask-2)"></path>
                    <g id="Group-6" mask="url(#mask-2)">
                        <g transform="translate(21.199960, 44.652780)" id="Group-5">
                            <g>
                                <g id="Group-4">
                                    <mask id="mask-6" fill="white">
                                        <use xlink:href="#path-5"></use>
                                    </mask>
                                    <g id="Rectangle-4"></g>
                                    <path d="M0.557277026,4.22054799 C2.04343908,4.22054799 3.38539295,4.06139824 4.58055921,3.74245885 C5.77637533,3.42417933 6.82408414,3.03833265 7.72824462,2.58687845 C8.63046553,2.13478436 9.37354155,1.6710025 9.95943226,1.19291335 C10.5427236,0.714844201 10.9948038,0.316649873 11.3130736,-0.0022895174 C12.1633359,0.634939386 12.7998855,1.39167558 13.2259914,2.26793906 C13.6507877,3.14549229 13.8638407,3.90223848 13.8638407,4.53947738 C13.8638407,5.33583605 13.676772,6.02633483 13.305234,6.61158361 C12.9336859,7.19489276 12.4816057,7.69895697 11.9515827,8.12505599 C11.6333029,8.33682575 11.1805728,8.60314514 10.5959818,8.92207453 C10.0113908,9.24101392 9.22868352,9.55929344 8.24658024,9.87823283 C7.26251739,10.1971722 6.0946351,10.4621819 4.74033396,10.6746015 C3.38538295,10.8863512 1.80439183,10.9935309 0,10.9935309" id="Path-3" fill="#FFFFFF" mask="url(#mask-6)"></path>
                                </g>
                            </g>
                        </g>
                    </g>
                    <g id="Group-9" mask="url(#mask-2)">
                        <g transform="translate(38.014540, 13.331580)" id="Group-8">
                            <g>
                                <g id="Group-7">
                                    <mask id="mask-8" fill="white">
                                        <use xlink:href="#path-7"></use>
                                    </mask>
                                    <g id="Rectangle-5"></g>
                                    <path d="M24.7090447,1.4313639 C23.9125835,1.00705642 22.836773,0.662029683 21.4816331,0.395623594 C20.1277831,0.129867593 18.3867517,-0.00399054059 16.2617787,-0.00399054059 C13.8704553,-0.00399054059 11.7201442,0.223430267 9.80695553,0.674371355 C7.89441681,1.12596253 6.23393948,1.63084093 4.82681343,2.18834645 C3.41774752,2.74650206 2.30296987,3.27867415 1.47857077,3.78289246 C0.654831625,4.28842094 0.164347859,4.61980583 0.00453966464,4.7789974 C0.00453966464,4.7789974 0.00453966464,15.7038974 0.00453966464,37.5536973 C0.0140656276,37.5727532 0.0188286091,37.5822812 0.0188286091,37.5822812 C0.0454666412,38.9364146 0.509302376,39.9409807 0.917932189,40.5985398 C1.34085095,41.2762616 2.0060718,41.7421447 2.8278711,42.1027735 C3.48595248,42.3919227 4.37076712,42.4984871 5.482295,42.4250672 C6.59447284,42.349687 7.68522227,41.9864678 8.75648313,41.3334393 C8.58237599,40.8357119 8.18415541,40.0884707 8.2140332,38.6875509 C8.2140332,38.6875509 8.2140332,9.00317963 8.2140332,9.00317963 C8.37254149,8.89726529 8.66357999,8.72442187 9.08974851,8.48530948 C9.51461712,8.24618709 10.0856449,8.00707469 10.802852,7.7679523 C11.5207089,7.52883991 12.3827752,7.31701121 13.3923107,7.13052595 C14.402506,6.94469078 15.5705598,6.85176819 16.9003715,6.85176819 C18.8116103,6.85176819 20.5377028,7.06424697 22.078659,7.48919454 C23.6202451,7.91480219 24.6557786,8.31311615 25.1871793,8.6847865 C25.5055058,8.4190305 25.8770884,7.94079572 26.3039168,7.25008215 C26.7274856,6.56001867 26.9405598,5.70881336 26.9405598,4.69906657 C26.9405598,3.2650123 26.1954249,2.17598477 24.7090547,1.4313439" id="Path-4" fill="#FFFFFF" mask="url(#mask-8)"></path>
                                </g>
                            </g>
                        </g>
                    </g>
                    <g id="Group-12" mask="url(#mask-2)">
                        <g transform="translate(281.351230, 13.331580)" id="Group-11">
                            <g>
                                <g id="Group-10">
                                    <mask id="mask-10" fill="white">
                                        <use xlink:href="#path-9"></use>
                                    </mask>
                                    <g id="Rectangle-6"></g>
                                    <path d="M24.7057349,1.4313639 C23.9092537,1.00705642 22.8334632,0.662029683 21.4783133,0.395623594 C20.1244733,0.129867593 18.383422,-0.00399054059 16.2584489,-0.00399054059 C13.8671456,-0.00399054059 11.7167944,0.223430267 9.80360578,0.674371355 C7.89044711,1.12596253 6.23059972,1.63084093 4.82350367,2.18834645 C3.41442776,2.74650206 2.29961012,3.27867415 1.47527102,3.78289246 C0.651511871,4.28842094 0.161038104,4.61980583 0.00122990914,4.7789974 C0.00122990914,4.7789974 0.00122990914,15.7038974 0.00122990914,37.5536973 C0.0107492059,37.5727532 0.0155088543,37.5822812 0.0155088543,37.5822812 C0.0421168887,38.9364146 0.506012619,39.9409807 0.914612435,40.5985398 C1.33752119,41.2762616 2.00276205,41.7421447 2.82453134,42.1027735 C3.48265272,42.3919227 4.36744736,42.4984871 5.47896525,42.4250672 C6.59115309,42.349687 7.68189251,41.9864678 8.75316337,41.3334393 C8.57907624,40.8357119 8.18081566,40.0884707 8.21069345,38.6875509 C8.21069345,38.6875509 8.21069345,9.00317963 8.21069345,9.00317963 C8.36922174,8.89726529 8.66028024,8.72442187 9.08641876,8.48530948 C9.51128737,8.24618709 10.0823152,8.00707469 10.7995222,7.7679523 C11.5173692,7.52883991 12.3794255,7.31701121 13.3889909,7.13052595 C14.3991663,6.94469078 15.56721,6.85176819 16.8970318,6.85176819 C18.8083006,6.85176819 20.5343631,7.06424697 22.0752992,7.48919454 C23.6169053,7.91480219 24.6524388,8.31311615 25.1838696,8.6847865 C25.5021761,8.4190305 25.8737586,7.94079572 26.3005771,7.25008215 C26.7241258,6.56001867 26.9372501,5.70881336 26.9372501,4.69906657 C26.9372501,3.2650123 26.1920951,2.17598477 24.7057249,1.4313439" id="Path-5" fill="#FFFFFF" mask="url(#mask-10)"></path>
                                </g>
                            </g>
                        </g>
                    </g>
                    <g id="Group-15" mask="url(#mask-2)">
                        <g transform="translate(104.082560, 0.000000)" id="Group-14">
                            <g>
                                <g id="Group-13">
                                    <mask id="mask-12" fill="white">
                                        <use xlink:href="#path-11"></use>
                                    </mask>
                                    <g id="Rectangle-7"></g>
                                    <path d="M133.023579,52.1554676 C133.023579,37.0590546 133.023579,29.5108481 133.023579,29.5108481 C133.023579,24.146391 131.561867,20.0954492 128.640394,17.3586625 C125.717581,14.6231657 121.837869,13.2550973 117.005089,13.2550973 C114.93208,13.2550973 113.111748,13.4811589 111.546062,13.9319924 C109.978456,14.3841156 108.662917,14.9278374 107.601384,15.5657574 C106.537901,16.2036674 105.674517,16.868214 105.010583,17.5580975 C104.346618,18.2486309 103.855495,18.8332775 103.537152,19.3113876 C103.537152,19.3113876 103.537152,0.801499459 103.537152,0.801499459 C103.269496,0.695612741 102.779013,0.536462705 102.063081,0.323389434 C101.345899,0.112265917 100.561082,0.00442944436 99.7113372,0.00442944436 C96.7885541,0.00442944436 95.3281325,1.25362274 95.3281325,3.75005959 C95.3281325,3.75005959 95.3281325,37.6984911 95.3281325,37.6984911 C95.1033546,44.6375806 91.8440396,47.0541175 89.8554463,47.9077004 C88.4996191,48.4890975 87.1879695,48.8392435 84.236618,48.8749691 C82.2161564,48.898996 80.622572,48.3845106 79.4538347,47.400354 C78.2857574,46.4181472 77.7010588,44.5992554 77.7010588,41.9417188 C77.7010588,41.9417188 77.7010588,35.0885884 77.7010588,21.3823278 C86.4142244,21.3823278 90.7708072,21.3823278 90.7708072,21.3823278 C90.8760415,21.1718542 91.0495122,20.758706 91.2885694,20.1474227 C91.5276466,19.5374392 91.6465202,18.8072808 91.6465202,17.9562975 C91.6465202,15.672934 90.3978972,14.5296274 87.9012812,14.5296274 C87.9012812,14.5296274 84.5012038,14.5296274 77.7010488,14.5296274 C77.7010488,5.39659304 77.7010488,0.830075874 77.7010488,0.830075874 C77.4340531,0.724189157 76.9435695,0.565039121 76.226338,0.35131593 C75.5091265,0.139542496 74.69903,0.0330058597 73.7953485,0.0330058597 C72.4141826,0.0330058597 71.3390003,0.339617398 70.5678717,0.949600881 C69.7973931,1.5608842 69.4134337,2.50345596 69.4134337,3.778636 C69.4134337,3.778636 69.4134337,7.36229646 69.4134337,14.5296174 L58.5050993,14.5296174 C58.4817139,14.5313505 58.4700212,14.5322171 58.4700212,14.5322171 C58.4518322,14.5322171 58.435603,14.5296174 58.417394,14.5296174 C57.9671882,14.5296174 57.5676596,14.5672927 57.1927997,14.6231657 C57.1927997,14.6231657 57.1858734,14.6238156 57.1720209,14.6251154 C57.1715809,14.6264152 57.1713609,14.6270652 57.1713609,14.6270652 C56.3183767,14.7582887 55.6485726,15.0239754 55.1899173,15.4462224 C54.524673,16.0575057 54.0069108,16.9474641 53.6353007,18.1161075 C53.1571764,19.8167742 52.5205106,21.915011 51.7233834,24.4114478 C50.9256062,26.9085346 50.1018404,29.5108581 49.2534059,32.2203582 C48.4016917,34.9298684 47.5655966,37.54713 46.7431307,40.0695536 C45.917435,42.593927 45.1878542,44.7051421 44.5511984,46.404519 C44.0197769,44.7584154 43.3811712,42.753077 42.6379711,40.3885136 C41.893471,38.0252501 41.0970038,35.47489 40.2472494,32.7381033 C39.3968651,30.0026164 38.5458208,27.1475946 37.6973663,24.1723978 C36.846962,21.1978509 36.0231962,18.3025541 35.2267389,15.4865074 C35.0136504,15.3273573 34.5751339,15.1279223 33.9118395,14.8882224 C33.2466052,14.6491624 32.357223,14.5296374 31.2417529,14.5296374 C29.7540527,14.5296374 28.611964,14.835599 27.8148468,15.4462324 C27.0183796,16.0575157 26.4064024,17.1332608 25.9828352,18.6741275 C24.1748422,25.0487179 22.595537,30.4677281 21.2409897,34.9298784 C19.8858225,39.3920186 18.6761674,43.2175587 17.6146244,46.404529 C17.0299558,44.7584254 16.3400228,42.7394487 15.5428856,40.3482487 C14.7451184,37.9576985 13.9090133,35.3677134 13.0319904,32.5789633 C12.1556075,29.7895532 11.2649353,26.9085446 10.3632037,23.9326979 C9.45825226,20.958151 8.63578641,18.0628542 7.89257631,15.2474573 C7.78475209,15.1948439 7.42679131,15.0610207 6.81547413,14.8485974 C6.20480691,14.6368239 5.36870179,14.5296374 4.30585885,14.5296374 C2.7122744,14.5296374 1.59616431,14.915499 0.959508491,15.6852924 C0.320882774,16.4563757 0.00255986258,17.3723208 0.00255986258,18.4350775 C0.00255986258,19.1788742 0.133782818,19.9759442 0.40013852,20.8249777 C0.667154185,21.6759609 0.932209957,22.472381 1.19857566,23.2155278 C1.35708715,23.7469012 1.83523148,25.0883429 2.63170872,27.2404929 C3.4294859,29.3913431 4.38642453,31.9689798 5.50121468,34.9695134 C6.61797473,37.9713468 7.83931916,41.2122303 9.16721788,44.6915238 C10.4944466,48.1714673 11.7963667,51.4526257 13.0729182,54.5324094 C13.0729182,54.5324094 14.2747837,55.8004303 17.6562322,55.8004303 C21.0370207,55.8004303 21.8380477,54.5324094 21.8380477,54.5324094 C22.2635748,53.4170293 22.8742421,51.6384124 23.6707093,49.193939 C24.4684865,46.7507655 25.3175909,44.1075171 26.2219023,41.2648437 C27.1236139,38.4234701 27.9870076,35.6067734 28.8114233,32.8180133 C29.6338692,30.0286032 30.2854842,27.678328 30.7636385,25.7658879 C31.2417629,27.5724413 31.9200065,29.8571047 32.7957594,32.6185883 C33.6727724,35.3813617 34.5615046,38.1844101 35.4658261,41.0257937 C36.3688376,43.8684771 37.2309313,46.5377122 38.0553371,49.034789 C38.8791029,51.5325257 39.5021094,53.3644159 39.9282865,54.5324094 C39.9282865,54.5324094 40.907974,55.8004303 44.5518683,55.8004303 C48.1951228,55.8004303 48.7746217,54.5324094 48.7746217,54.5324094 C50.0498832,51.5045892 51.4161098,48.1311824 52.8784813,44.4121889 C54.3388929,40.6944952 55.734358,37.029405 57.0622468,33.4163082 C58.3901355,29.8031914 59.5588627,26.442783 60.5684185,23.3350628 C60.7919165,22.6471291 60.9952456,22.0046697 61.1901552,21.3823478 C61.1901552,21.3823478 63.9312547,21.3823478 69.4134537,21.3823478 C69.4134537,35.7797884 69.4134537,42.9785087 69.4134537,42.9785087 C69.4134537,44.7844122 69.6648602,46.4584522 70.1702931,47.9980191 C70.674436,49.5401856 71.457914,50.8803275 72.5207369,52.0229742 C73.5835798,53.1656308 74.9380871,54.0542994 76.5856087,54.6922093 C78.2311803,55.3294694 80.1970348,55.6484294 82.4818722,55.6484294 C84.1820209,55.6484294 87.4939631,55.5724289 89.8314076,55.0514443 C92.2903356,54.5031731 93.7416577,53.9847881 94.5231857,53.5696901 C95.37554,53.1175669 103.292855,48.987365 103.492304,37.7439853 C103.492304,37.7439853 103.498591,37.7355397 103.511163,37.7186485 C103.528476,34.4779817 103.537132,32.8576483 103.537132,32.8576483 C103.537132,31.1050081 103.774909,29.4582647 104.253673,27.917398 C104.731858,26.3771812 105.4354,25.0363894 106.36571,23.8930828 C107.29471,22.7510761 108.463467,21.8487693 109.871902,21.1842226 C111.279696,20.519676 112.912269,20.1877276 114.773529,20.1877276 C118.439502,20.1877276 121.029023,21.1432978 122.543372,23.0563878 C124.05705,24.9688279 124.81391,27.678338 124.81391,31.1849181 C124.81391,31.1849181 124.81391,37.7143257 124.81391,50.773141 C124.81173,50.773141 124.81064,50.773141 124.81064,50.773141 C124.81064,50.788729 124.81391,50.8017174 124.81391,50.8173154 C124.81391,50.8173154 124.81391,50.8424323 124.81391,50.892666 C124.818649,50.9004583 124.821019,50.9043545 124.821019,50.9043545 C124.852208,52.2483859 125.312173,53.2474906 125.718891,53.9009886 C126.142448,54.5785336 126.807033,55.0442952 127.629499,55.4054799 C128.286963,55.6939037 129.171806,55.8004403 130.283346,55.7270395 C131.395526,55.651689 132.486288,55.2892045 133.55822,54.6356964 C133.391269,54.1601861 133.030049,53.4397664 133.023549,52.1554975" id="Path-6" fill="#FFFFFF" mask="url(#mask-12)"></path>
                                </g>
                            </g>
                        </g>
                    </g>
                    <path d="M249.36708,27.95606 C249.8972,26.39031 250.68141,24.9675 251.71767,23.69281 C252.75325,22.41747 254.04222,21.36888 255.58333,20.54507 C257.1237,19.72127 258.90254,19.30936 260.92244,19.30936 C262.67531,19.30936 264.1761,19.56209 265.42479,20.06625 C266.67412,20.57236 267.69737,21.22205 268.49391,22.01921 C269.29042,22.81573 269.86082,23.72009 270.20778,24.72841 C270.55208,25.73868 270.7256,26.74894 270.7256,27.75725 C270.7256,29.61796 270.29942,30.89265 269.45088,31.58262 C268.59916,32.27324 267.21922,32.61822 265.30586,32.61822 C265.30586,32.61822 248.49,32.61822 248.49,32.61822 C248.542,31.07846 248.83564,29.52376 249.36707,27.95606 M276.99638,47.14394 C276.49092,46.42214 275.77885,45.82377 274.85762,45.34885 C274.58736,45.62496 274.21178,46.09859 273.37633,46.56376 C272.63698,46.95942 271.44155,47.42135 269.72963,47.96059 C267.78899,48.57194 265.30586,48.87665 262.2777,48.87665 C258.34511,48.87665 255.22405,47.97423 252.91311,46.1668 C250.60214,44.36132 249.20724,41.78401 248.72909,38.43617 C248.72909,38.43617 267.37777,38.43617 267.37777,38.43617 C271.46883,38.43617 274.36453,37.55974 276.06472,35.80688 C277.76434,34.05337 278.61605,31.63589 278.61605,28.55377 C278.61605,26.32274 278.22881,24.27817 277.45962,22.41747 C276.68908,20.55871 275.57287,18.95074 274.11306,17.59614 C272.65127,16.24089 270.81722,15.17865 268.61279,14.40812 C266.40777,13.63824 263.8714,13.25232 261.00302,13.25232 C257.92026,13.25232 255.10513,13.78376 252.55511,14.84666 C250.00381,15.90955 247.79809,17.41033 245.93997,19.349 C244.07864,21.28962 242.6318,23.60056 241.59555,26.28247 C240.55991,28.96633 240.04214,31.92826 240.04214,35.1689 C240.04214,38.62329 240.58593,41.65213 241.67675,44.25414 C242.76434,46.85809 244.26574,49.00985 246.17907,50.70944 C248.09045,52.41097 250.33581,53.68631 252.91311,54.53545 C255.48913,55.38459 258.26589,55.81013 261.24212,55.81013 C263.26071,55.81013 265.13244,55.6633 266.85998,55.37224 C268.5855,55.07924 270.09994,54.74724 271.40322,54.37627 C272.70455,54.0053 273.76617,53.61939 274.58996,53.21983 C275.04797,52.99828 275.46377,52.76375 275.79318,52.5461 C276.65921,52.0322 277.17636,51.40525 277.47778,50.91864 C277.81241,50.3755 277.89163,49.74985 277.82861,49.05793 C277.77859,48.50439 277.50052,47.86641 276.9964,47.14395" id="Path-7" fill="#FFFFFF" mask="url(#mask-2)"></path>
                </g>
            </g>
        </g>
    </g>
</svg>